HIERARCHY
ROOT pelvis
{
  OFFSET 0 100 0
  CHANNELS 6 Xposition Yposition Zposition Zrotation Xrotation Yrotation
  JOINT pelvis_right_femur
  {
    OFFSET -10.78128 -3.44521 -0.5502486
    CHANNELS 3 Zrotation Xrotation Yrotation
    JOINT right_femur_tibia
    {
      OFFSET -0.8047443 -44.0398 -0.1307829
      CHANNELS 3 Zrotation Xrotation Yrotation
      JOINT right_tibia_foot
      {
        OFFSET 3.006224 -47.83518 -5
        CHANNELS 3 Zrotation Xrotation Yrotation
        End Site
        {
          OFFSET 0 -5 15
        }
      }
    }
  }
  JOINT pelvis_left_femur
  {
    OFFSET 10.78128 -3.44521 -0.5502486
    CHANNELS 3 Zrotation Xrotation Yrotation
    JOINT left_femur_tibia
    {
      OFFSET 0.8047443 -44.0398 -0.1307829
      CHANNELS 3 Zrotation Xrotation Yrotation
      JOINT left_tibia_foot
      {
        OFFSET -4.370144 -48.10324 -4.275266
        CHANNELS 3 Zrotation Xrotation Yrotation
        End Site
        {
          OFFSET 0 -5 15
        }
      }
    }
  }
  JOINT pelvis_spine1
  {
    OFFSET 0 6.468898 -3.129235
    CHANNELS 3 Zrotation Xrotation Yrotation
    JOINT spine1
    {
      OFFSET 0 23.15396 4.99043
      CHANNELS 3 Zrotation Xrotation Yrotation
      JOINT spine2
      {
        OFFSET 0 20.79997 -5.064912
        CHANNELS 3 Zrotation Xrotation Yrotation
        JOINT neck
        {
          OFFSET 0 14.38658 9.616178
          CHANNELS 3 Zrotation Xrotation Yrotation
          End Site
          {
            OFFSET 0 20 0
          }
        }
      }
      JOINT right_manubrium
      {
        OFFSET -5.722621 16.35077 3.967754
        CHANNELS 3 Zrotation Xrotation Yrotation
        JOINT right_clavicle
        {
          OFFSET -13.16364 1.694482 -4.693211
          CHANNELS 3 Zrotation Xrotation Yrotation
          JOINT right_humerus
          {
            OFFSET -28.5034 -0.3100689 -2.792744
            CHANNELS 3 Zrotation Xrotation Yrotation
            JOINT right_radius
            {
              OFFSET -25.15693 0.02248979 -1.271978
              CHANNELS 3 Zrotation Xrotation Yrotation
              End Site
              {
                OFFSET -15 0 0
              }
            }
          }
        }
      }
      JOINT left_manubrium
      {
        OFFSET 5.722621 16.35077 3.967754
        CHANNELS 3 Zrotation Xrotation Yrotation
        JOINT left_clavicle
        {
          OFFSET 13.16364 1.694482 -4.693211
          CHANNELS 3 Zrotation Xrotation Yrotation
          JOINT left_humerus
          {
            OFFSET 29.39168 -1.063119 -2.237045
            CHANNELS 3 Zrotation Xrotation Yrotation
            JOINT left_radius
            {
              OFFSET 24.59957 -0.9528479 0.9047498
              CHANNELS 3 Zrotation Xrotation Yrotation
              End Site
              {
                OFFSET 15 -0 -0
              }
            }
          }
        }
      }
    }
  }
}
MOTION
Frames: 19
Frame Time: 0.0416666666667
0 103.5113 0 2.452323 -0.1624929 0.06019743 3.108828 -15.80157 11.73064 -0 35.74665 -0 -1.559651 -17.96863 -2.875752 -8.74071 9.728373 -22.32409 -0 4.327254 -0 21.30891 -8.768693 30.47012 -2.194334 -2.011825 4.765879 2.813329 10.03476 -7.076598 1.333768 21.47352 6.631809 2.686027 -24.31609 9.446231 5.550261 -18.2337 11.56442 85.98291 37.0794 -17.83513 -0 0 12.81849 -8.43409 8.96066 5.750782 5.709941 -20.32612 -1.552236 -90.61213 20.46542 19.21281 0 0 -16.78951 13.36675 12.31898 -1.746015
0.4048885 103.4689 1.74848 1.916795 0.964884 0.07758567 4.140313 -18.78172 12.47413 -0 35.55594 -0 -1.922173 -17.83074 -3.025575 -8.615367 9.850174 -22.34639 -0 4.700974 -0 22.09654 -9.138174 31.06488 -2.189544 -1.81312 4.451356 3.027141 10.04887 -7.261588 1.302539 21.41756 6.84297 2.700304 -24.61009 9.693696 5.529695 -18.03733 11.6566 86.73484 37.60121 -18.71221 -0 0 11.91454 -7.880569 8.951731 5.637549 5.5593 -20.36264 -1.858642 -89.87252 20.52386 18.39316 0 0 -18.48756 13.68565 11.65151 -2.000747
0.7296739 103.2927 3.68217 1.343026 0.7475596 0.1555499 4.508913 -20.7798 9.929168 -0 33.28376 -0 -3.925966 -15.276 -2.654203 -8.021439 10.96213 -21.8973 -0 5.362426 -0 17.53121 -13.04416 29.12673 -2.123151 -2.014516 4.361587 3.181343 10.22576 -7.580142 1.259085 21.1199 7.150214 2.809238 -25.33441 10.09431 5.434864 -18.30386 11.66947 87.81996 37.79411 -20.25053 -0 0 11.50723 -7.114014 8.854417 5.137806 5.869336 -20.81915 -1.903997 -89.71373 20.74651 18.23767 0 0 -20.14063 14.47004 11.06088 -2.54941
1.006271 103.0965 5.799826 0.8290331 1.140589 0.2255325 5.133365 -23.21805 9.123855 -0 31.63084 -0 -4.808229 -13.71191 -2.532834 -7.629442 11.51976 -21.48161 -0 5.927071 -0 15.55441 -15.04877 28.1633 -2.075456 -2.035472 4.24101 3.303752 10.33245 -7.78762 1.218371 20.93625 7.376563 2.875927 -25.7932 10.3532 5.348418 -18.42004 11.71818 88.59839 38.0027 -21.27121 -0 0 11.06264 -6.651315 8.7977 4.943883 5.957725 -21.05815 -2.048341 -89.35593 20.93077 17.89957 0 0 -21.67359 14.85882 10.45218 -2.751328
1.251255 102.8302 8.176404 0.3411604 1.526609 0.3087291 5.760337 -25.78821 8.273207 -0 29.32068 -0 -5.539996 -11.72034 -2.304668 -7.240693 12.03703 -20.77655 -0 6.670359 -0 13.79742 -16.81698 26.99705 -2.028315 -2.111384 4.151438 3.430159 10.43217 -7.993676 1.18308 20.75951 7.562705 2.920242 -26.26648 10.58729 5.280216 -18.56933 11.76539 89.24501 38.00991 -22.22589 -0 0 10.75993 -6.235248 8.763733 4.766453 6.050605 -21.2713 -2.144935 -89.18512 21.26833 17.75377 0 0 -22.9326 15.07044 10.00181 -2.751455
1.477247 102.4968 10.86665 -0.09356425 2.005203 0.4167886 6.394771 -28.31447 7.625916 -0 26.76806 -0 -6.059657 -9.720257 -2.03247 -6.915623 12.46971 -19.93563 -0 7.568601 -0 12.61749 -18.06403 25.87891 -1.99954 -2.120131 4.055438 3.53529 10.48246 -8.1301 1.156237 20.65558 7.689144 2.935558 -26.58736 10.74254 5.233618 -18.63767 11.81859 89.65886 38.0043 -22.84368 -0 0 10.49608 -5.980796 8.760147 4.724374 6.045009 -21.35759 -2.256963 -88.99708 21.57739 17.58475 0 0 -23.91118 15.08781 9.65295 -2.610916
1.693222 102.0961 13.9434 -0.4833502 2.506373 0.5687301 6.987203 -30.6543 6.959049 -0 23.92977 -0 -6.517885 -7.606862 -1.674789 -6.626184 12.87647 -18.91482 -0 8.788261 -0 11.6746 -18.90006 24.596 -1.988237 -2.097787 3.951355 3.635768 10.49033 -8.222074 1.137896 20.60868 7.764886 2.922487 -26.81126 10.8439 5.214686 -18.64441 11.87357 89.88235 37.95658 -23.22442 -0 0 10.27621 -5.825069 8.786789 4.760309 5.971939 -21.34489 -2.365878 -88.8489 21.90063 17.44195 0 0 -24.59876 14.94279 9.435499 -2.351602
1.904536 101.6546 17.46848 -0.84085 2.991399 0.7843303 7.513388 -32.56243 6.274835 -0 21.14009 -0 -6.976528 -5.569273 -1.273794 -6.349939 13.25787 -17.77571 -0 10.50342 -0 10.75904 -19.27114 23.06773 -1.995891 -2.021642 3.834326 3.724459 10.45328 -8.261429 1.12653 20.62432 7.792636 2.885305 -26.91299 10.8843 5.218811 -18.57339 11.92901 89.92868 37.92549 -23.34654 -0 0 10.07156 -5.779428 8.837677 4.882308 5.822796 -21.2315 -2.4839 -88.68514 22.17861 17.27032 0 0 -25.03166 14.66827 9.315128 -2.021458
2.114991 101.2258 21.49385 -1.190767 3.380974 1.074909 7.968098 -33.77506 5.565676 -0 18.71828 -0 -7.491475 -3.748198 -0.876938 -6.042556 13.58674 -16.54149 -0 13.00677 -0 9.615025 -19.09253 21.17521 -2.020769 -1.899615 3.705428 3.804463 10.37681 -8.257083 1.121187 20.69512 7.77697 2.826912 -26.90685 10.87003 5.244602 -18.43139 11.9831 89.82507 37.9115 -23.24961 -0 0 9.877048 -5.824259 8.908442 5.070186 5.609836 -21.03356 -2.607457 -88.50961 22.40917 17.07329 0 0 -25.22941 14.28626 9.284511 -1.638663
2.328351 100.8954 26.04399 -1.557085 3.565999 1.428334 8.370555 -33.99706 4.890012 -0 17.03074 -0 -8.077024 -2.322072 -0.5647654 -5.65238 13.76905 -15.25459 -0 16.64125 -0 8.050521 -18.23012 18.88982 -2.060976 -1.736481 3.569305 3.874354 10.26627 -8.213213 1.12159 20.81646 7.718809 2.750421 -26.7943 10.80132 5.290613 -18.22294 12.03324 89.58821 37.91636 -22.95314 -0 0 9.692942 -5.950912 8.994158 5.308856 5.344238 -20.76548 -2.731968 -88.32456 22.57814 16.85321 0 0 -25.19534 13.81753 9.339076 -1.222899
2.549403 100.774 31.10176 -1.942544 3.41422 1.791796 8.740766 -32.96267 4.314364 -0 16.29032 -0 -8.712506 -1.412153 -0.4213487 -5.138101 13.615 -13.94673 -0 21.76273 -0 6.026915 -16.54384 16.31974 -2.114179 -1.548891 3.434876 3.93488 10.12835 -8.137188 1.128448 20.98207 7.616257 2.657618 -26.5838 10.67956 5.358861 -17.95923 12.07597 89.22693 37.91515 -22.48379 -0 0 9.535737 -6.144614 9.090984 5.574319 5.043742 -20.44493 -2.844564 -88.16427 22.69173 16.64344 0 0 -24.89752 13.27148 9.496661 -0.7778175
2.782548 100.9775 36.59189 -2.303353 2.814887 2.064164 9.054236 -30.51852 3.868124 -0 16.39919 -0 -9.351876 -1.056195 -0.5035512 -4.501666 12.81915 -12.64405 -0 28.58716 -0 3.744907 -13.99755 13.75945 -2.177168 -1.358927 3.317217 3.984193 9.971315 -8.035544 1.142507 21.18494 7.465109 2.550809 -26.2826 10.50312 5.451828 -17.65716 12.10673 88.74314 37.8702 -21.86368 -0 0 9.436594 -6.394437 9.193362 5.840918 4.730253 -20.09313 -2.92745 -88.08047 22.76063 16.49684 0 0 -24.27971 12.6518 9.785043 -0.2984631
3.026696 101.5916 42.37482 -2.53796 1.748237 2.118621 9.203987 -26.71569 3.489723 -0 16.85083 -0 -9.956138 -1.211742 -0.7964953 -3.817015 10.99727 -11.36164 -0 36.98277 -0 1.618581 -10.8089 11.61274 -2.244429 -1.190653 3.239308 4.014286 9.806922 -7.912898 1.163235 21.41497 7.261427 2.434979 -25.8969 10.2665 5.56812 -17.34309 12.12035 88.13856 37.7387 -21.11112 -0 0 9.440819 -6.700559 9.292011 6.087977 4.429787 -19.73778 -2.96136 -88.12955 22.79522 16.47672 0 0 -23.28876 11.96002 10.2257 0.2280915
3.268464 102.6284 48.26238 -2.513171 0.3432878 1.866542 9.029609 -21.85425 3.04951 -0 16.89215 -0 -10.51897 -1.828085 -1.200228 -3.21746 7.822778 -10.11455 -0 46.22765 -0 0.09157389 -7.531118 10.20837 -2.306709 -1.059842 3.232456 4.00438 9.651915 -7.767375 1.187839 21.65795 7.004816 2.320682 -25.42495 9.958448 5.696049 -17.05281 12.112 87.42088 37.49443 -20.23026 -0 0 9.600947 -7.090025 9.373888 6.31428 4.169526 -19.41273 -2.93275 -88.34091 22.78794 16.62886 0 0 -21.9212 11.20606 10.80629 0.8118293
3.481044 103.993 54.06135 -2.133691 -1.153475 1.327991 8.432071 -16.40868 2.46258 -0 15.96299 -0 -11.04808 -2.883488 -1.57667 -2.805176 3.240485 -8.92505 -0 54.89507 -0 -0.6154576 -4.901915 9.645798 -2.35149 -0.9676319 3.332718 3.919992 9.527433 -7.587492 1.211677 21.89526 6.702338 2.224382 -24.85662 9.566304 5.810755 -16.83021 12.07974 86.60364 37.14089 -19.20293 -0 0 9.967963 -7.624892 9.427341 6.550615 3.973072 -19.15118 -2.839223 -88.69555 22.70891 16.96109 0 0 -20.25763 10.41481 11.46253 1.451972
3.635404 105.4828 59.62848 -1.429486 -2.515109 0.6369139 7.504808 -10.84964 1.801451 -0 14.09636 -0 -11.49604 -4.280919 -1.829309 -2.516806 -2.387273 -7.794865 -0 61.04706 -0 -0.6286697 -3.459358 9.832536 -2.366746 -0.9067645 3.572446 3.723548 9.45532 -7.355291 1.229922 22.10322 6.373361 2.16503 -24.19065 9.090513 5.878523 -16.72738 12.02727 85.70342 36.70322 -17.99978 -0 0 10.58498 -8.385196 9.449047 6.855661 3.857214 -18.97465 -2.688693 -89.13779 22.52679 17.45262 0 0 -18.45804 9.625742 12.08491 2.135256
3.719447 106.8248 64.90372 -0.6011332 -3.651533 -0.0421245 6.551267 -5.491454 1.257765 -0 11.83566 -0 -11.73072 -5.760266 -1.936673 -2.07441 -8.38069 -6.658336 -0 62.81846 -0 -0.2967925 -3.193061 10.64326 -2.346969 -0.8786435 3.966931 3.394618 9.450502 -7.058218 1.239701 22.25329 6.052295 2.157819 -23.46495 8.562889 5.86874 -16.801 11.96307 84.74497 36.20729 -16.62086 -0 0 11.4809 -9.419488 9.446001 7.282348 3.833781 -18.88533 -2.49208 -89.61808 22.24446 18.08768 0 0 -16.71315 8.888714 12.55932 2.834484
3.752002 107.7461 69.90849 0.04682374 -4.556451 -0.6135563 5.92058 -0.493099 0.9471863 -0 9.740881 -0 -11.62544 -7.13566 -1.918274 -1.140787 -14.04288 -5.413626 -0 59.19458 -0 0.05913904 -3.577183 11.95968 -2.29771 -0.8983709 4.500124 2.945679 9.510328 -6.699934 1.241905 22.32197 5.779599 2.206918 -22.75984 8.045633 5.769046 -17.0884 11.89437 83.76593 35.67666 -15.12257 -0 0 12.65138 -10.69753 9.431428 7.836819 3.908032 -18.86405 -2.257471 -90.12013 21.90678 18.86498 0 0 -15.17099 8.256442 12.82526 3.502427
3.781927 108.0571 74.73244 0.2702418 -5.162075 -1.084608 5.778345 4.015398 0.789291 -0 8.096221 -0 -11.16573 -8.624889 -1.792652 0.399117 -18.87139 -4.03778 -0 50.59214 -0 0.2783941 -3.978502 13.53962 -2.233994 -0.9771287 5.122606 2.419263 9.611026 -6.299036 1.241035 22.30731 5.581449 2.301785 -22.15385 7.600565 5.592646 -17.57465 11.82328 82.80514 35.1432 -13.5899 -0 0 14.03711 -12.11722 9.418467 8.475815 4.067854 -18.87471 -1.992889 -90.64352 21.56774 19.76665 0 0 -13.88444 7.764852 12.90297 4.082305
